<mxfile host="app.diagrams.net" modified="2022-06-03T19:37:27.805Z" agent="5.0 (Macintosh; Intel Mac OS X 10_15_7) AppleWebKit/537.36 (KHTML, like Gecko) Chrome/102.0.5005.61 Safari/537.36" etag="UHIjJ82v53NV3w-GU_ky" version="18.2.1" type="github">
  <diagram id="A6We_8_1jJDyBwTs_S6T" name="Page-1">
    <mxGraphModel dx="825" dy="1815" grid="1" gridSize="10" guides="1" tooltips="1" connect="1" arrows="1" fold="1" page="1" pageScale="1" pageWidth="827" pageHeight="1169" math="0" shadow="0">
      <root>
        <mxCell id="0" />
        <mxCell id="1" parent="0" />
        <mxCell id="8jIOJXJKgkQRDivw16Ej-54" value="" style="verticalLabelPosition=bottom;html=1;verticalAlign=top;align=center;shape=mxgraph.floorplan.desk_corner_2;fontSize=27;strokeWidth=5;flipH=0;" parent="1" vertex="1">
          <mxGeometry x="110" y="-160" width="180" height="120" as="geometry" />
        </mxCell>
        <mxCell id="8jIOJXJKgkQRDivw16Ej-3" value="" style="verticalLabelPosition=bottom;html=1;verticalAlign=top;align=center;shape=mxgraph.floorplan.doorBypass;dx=0.25;" parent="1" vertex="1">
          <mxGeometry x="180" y="790" width="370" height="10" as="geometry" />
        </mxCell>
        <mxCell id="8jIOJXJKgkQRDivw16Ej-6" value="" style="verticalLabelPosition=bottom;html=1;verticalAlign=top;align=center;shape=mxgraph.floorplan.wall;fillColor=#000000;direction=south;" parent="1" vertex="1">
          <mxGeometry x="90" y="-350" width="10" height="1140" as="geometry" />
        </mxCell>
        <mxCell id="8jIOJXJKgkQRDivw16Ej-7" value="" style="verticalLabelPosition=bottom;html=1;verticalAlign=top;align=center;shape=mxgraph.floorplan.wall;fillColor=#000000;direction=south;" parent="1" vertex="1">
          <mxGeometry x="620" y="-350" width="10" height="1140" as="geometry" />
        </mxCell>
        <mxCell id="8jIOJXJKgkQRDivw16Ej-8" value="" style="verticalLabelPosition=bottom;html=1;verticalAlign=top;align=center;shape=mxgraph.floorplan.wall;fillColor=#000000;" parent="1" vertex="1">
          <mxGeometry x="90" y="790" width="90" height="10" as="geometry" />
        </mxCell>
        <mxCell id="8jIOJXJKgkQRDivw16Ej-9" value="" style="verticalLabelPosition=bottom;html=1;verticalAlign=top;align=center;shape=mxgraph.floorplan.wall;fillColor=#000000;" parent="1" vertex="1">
          <mxGeometry x="550" y="790" width="80" height="10" as="geometry" />
        </mxCell>
        <mxCell id="8jIOJXJKgkQRDivw16Ej-10" value="" style="verticalLabelPosition=bottom;html=1;verticalAlign=top;align=center;shape=mxgraph.floorplan.wall;fillColor=#000000;" parent="1" vertex="1">
          <mxGeometry x="100" y="50" width="380" height="10" as="geometry" />
        </mxCell>
        <mxCell id="8jIOJXJKgkQRDivw16Ej-11" value="" style="verticalLabelPosition=bottom;html=1;verticalAlign=top;align=center;shape=mxgraph.floorplan.wallU;fillColor=#000000;rotation=-90;" parent="1" vertex="1">
          <mxGeometry x="153.13" y="-13.12" width="177.5" height="303.75" as="geometry" />
        </mxCell>
        <mxCell id="8jIOJXJKgkQRDivw16Ej-13" value="" style="verticalLabelPosition=bottom;html=1;verticalAlign=top;align=center;shape=mxgraph.floorplan.wall;fillColor=#000000;direction=south;" parent="1" vertex="1">
          <mxGeometry x="384" y="150" width="10" height="67.63" as="geometry" />
        </mxCell>
        <mxCell id="8jIOJXJKgkQRDivw16Ej-14" value="" style="verticalLabelPosition=bottom;html=1;verticalAlign=top;align=center;shape=mxgraph.floorplan.windowGlider;dx=0.25;" parent="1" vertex="1">
          <mxGeometry x="190" y="-350" width="180" height="10" as="geometry" />
        </mxCell>
        <mxCell id="8jIOJXJKgkQRDivw16Ej-15" value="" style="verticalLabelPosition=bottom;html=1;verticalAlign=top;align=center;shape=mxgraph.floorplan.doorRight;aspect=fixed;" parent="1" vertex="1">
          <mxGeometry x="444" y="-350" width="100" height="106.25" as="geometry" />
        </mxCell>
        <mxCell id="8jIOJXJKgkQRDivw16Ej-16" value="" style="verticalLabelPosition=bottom;html=1;verticalAlign=top;align=center;shape=mxgraph.floorplan.wall;fillColor=#000000;" parent="1" vertex="1">
          <mxGeometry x="545" y="-350" width="85" height="10" as="geometry" />
        </mxCell>
        <mxCell id="8jIOJXJKgkQRDivw16Ej-17" value="" style="verticalLabelPosition=bottom;html=1;verticalAlign=top;align=center;shape=mxgraph.floorplan.wall;fillColor=#000000;" parent="1" vertex="1">
          <mxGeometry x="370" y="-350" width="70" height="10" as="geometry" />
        </mxCell>
        <mxCell id="8jIOJXJKgkQRDivw16Ej-18" value="" style="verticalLabelPosition=bottom;html=1;verticalAlign=top;align=center;shape=mxgraph.floorplan.wall;fillColor=#000000;" parent="1" vertex="1">
          <mxGeometry x="100" y="-350" width="90" height="10" as="geometry" />
        </mxCell>
        <mxCell id="8jIOJXJKgkQRDivw16Ej-20" value="" style="verticalLabelPosition=bottom;html=1;verticalAlign=top;align=center;shape=mxgraph.floorplan.sink_1;rotation=-180;" parent="1" vertex="1">
          <mxGeometry x="266.25" y="156" width="55" height="60.5" as="geometry" />
        </mxCell>
        <mxCell id="8jIOJXJKgkQRDivw16Ej-21" value="" style="verticalLabelPosition=bottom;html=1;verticalAlign=top;align=center;shape=mxgraph.floorplan.sink_double;" parent="1" vertex="1">
          <mxGeometry x="214" y="228" width="156" height="62" as="geometry" />
        </mxCell>
        <mxCell id="8jIOJXJKgkQRDivw16Ej-22" value="" style="verticalLabelPosition=bottom;html=1;verticalAlign=top;align=center;shape=mxgraph.floorplan.toilet;rotation=-180;" parent="1" vertex="1">
          <mxGeometry x="143.75" y="138.38" width="65" height="77.25" as="geometry" />
        </mxCell>
        <mxCell id="8jIOJXJKgkQRDivw16Ej-33" value="" style="verticalLabelPosition=bottom;html=1;verticalAlign=top;align=center;shape=mxgraph.floorplan.table;" parent="1" vertex="1">
          <mxGeometry x="290" y="580" width="275.63" height="110" as="geometry" />
        </mxCell>
        <mxCell id="8jIOJXJKgkQRDivw16Ej-34" value="" style="verticalLabelPosition=bottom;html=1;verticalAlign=top;align=center;shape=mxgraph.floorplan.refrigerator;" parent="1" vertex="1">
          <mxGeometry x="111" y="232" width="76" height="72" as="geometry" />
        </mxCell>
        <mxCell id="8jIOJXJKgkQRDivw16Ej-36" value="" style="verticalLabelPosition=bottom;html=1;verticalAlign=top;align=center;shape=mxgraph.floorplan.doorBypass;dx=0.25;" parent="1" vertex="1">
          <mxGeometry x="410" y="440" width="210" height="10" as="geometry" />
        </mxCell>
        <mxCell id="8jIOJXJKgkQRDivw16Ej-37" value="" style="verticalLabelPosition=bottom;html=1;verticalAlign=top;align=center;shape=mxgraph.floorplan.wall;fillColor=#000000;" parent="1" vertex="1">
          <mxGeometry x="90" y="440" width="320" height="10" as="geometry" />
        </mxCell>
        <mxCell id="8jIOJXJKgkQRDivw16Ej-38" value="" style="group;rotation=45;" parent="1" vertex="1" connectable="0">
          <mxGeometry x="410" y="260" width="140" height="140" as="geometry" />
        </mxCell>
        <mxCell id="8jIOJXJKgkQRDivw16Ej-28" value="" style="verticalLabelPosition=bottom;html=1;verticalAlign=top;align=center;shape=mxgraph.floorplan.chair;shadow=0;rotation=45;" parent="8jIOJXJKgkQRDivw16Ej-38" vertex="1">
          <mxGeometry x="81" y="13" width="40" height="52" as="geometry" />
        </mxCell>
        <mxCell id="8jIOJXJKgkQRDivw16Ej-29" value="" style="verticalLabelPosition=bottom;html=1;verticalAlign=top;align=center;shape=mxgraph.floorplan.chair;shadow=0;direction=west;rotation=45;" parent="8jIOJXJKgkQRDivw16Ej-38" vertex="1">
          <mxGeometry x="19" y="75" width="40" height="52" as="geometry" />
        </mxCell>
        <mxCell id="8jIOJXJKgkQRDivw16Ej-30" value="" style="verticalLabelPosition=bottom;html=1;verticalAlign=top;align=center;shape=mxgraph.floorplan.chair;shadow=0;direction=north;rotation=45;" parent="8jIOJXJKgkQRDivw16Ej-38" vertex="1">
          <mxGeometry x="13" y="19" width="52" height="40" as="geometry" />
        </mxCell>
        <mxCell id="8jIOJXJKgkQRDivw16Ej-31" value="" style="verticalLabelPosition=bottom;html=1;verticalAlign=top;align=center;shape=mxgraph.floorplan.chair;shadow=0;direction=south;rotation=45;" parent="8jIOJXJKgkQRDivw16Ej-38" vertex="1">
          <mxGeometry x="75" y="81" width="52" height="40" as="geometry" />
        </mxCell>
        <mxCell id="8jIOJXJKgkQRDivw16Ej-32" value="" style="shape=ellipse;shadow=0;rotation=45;" parent="8jIOJXJKgkQRDivw16Ej-38" vertex="1">
          <mxGeometry x="20" y="20" width="100" height="100" as="geometry" />
        </mxCell>
        <mxCell id="8jIOJXJKgkQRDivw16Ej-39" value="" style="strokeColor=#666666;html=1;verticalLabelPosition=bottom;labelBackgroundColor=#ffffff;verticalAlign=top;outlineConnect=0;shadow=0;dashed=0;shape=mxgraph.rackGeneral.container;fillColor2=#f4f4f4;container=1;collapsible=0;childLayout=rack;allowGaps=1;marginLeft=9;marginRight=9;marginTop=21;marginBottom=22;textColor=#666666;numDisp=off;rotation=90;" parent="1" vertex="1">
          <mxGeometry x="164" y="350" width="50" height="110" as="geometry" />
        </mxCell>
        <mxCell id="8jIOJXJKgkQRDivw16Ej-42" value="" style="verticalLabelPosition=bottom;html=1;verticalAlign=top;align=center;shape=mxgraph.floorplan.wall;fillColor=#000000;" parent="1" vertex="1">
          <mxGeometry x="90" y="-180" width="390" height="10" as="geometry" />
        </mxCell>
        <mxCell id="8jIOJXJKgkQRDivw16Ej-43" value="" style="verticalLabelPosition=bottom;html=1;verticalAlign=top;align=center;shape=mxgraph.floorplan.doorRight;aspect=fixed;" parent="1" vertex="1">
          <mxGeometry x="490" y="-180" width="100" height="106.25" as="geometry" />
        </mxCell>
        <mxCell id="8jIOJXJKgkQRDivw16Ej-44" value="" style="verticalLabelPosition=bottom;html=1;verticalAlign=top;align=center;shape=mxgraph.floorplan.wall;fillColor=#000000;" parent="1" vertex="1">
          <mxGeometry x="590" y="-180" width="40" height="10" as="geometry" />
        </mxCell>
        <mxCell id="8jIOJXJKgkQRDivw16Ej-45" value="" style="verticalLabelPosition=bottom;html=1;verticalAlign=top;align=center;shape=mxgraph.floorplan.windowGlider;dx=0.25;" parent="1" vertex="1">
          <mxGeometry x="180" y="-180" width="180" height="10" as="geometry" />
        </mxCell>
        <mxCell id="8jIOJXJKgkQRDivw16Ej-46" value="&lt;font style=&quot;font-size: 27px;&quot;&gt;Sala de motoristas&lt;/font&gt;" style="text;html=1;resizable=0;autosize=1;align=center;verticalAlign=middle;points=[];fillColor=none;strokeColor=none;rounded=0;strokeWidth=5;" parent="1" vertex="1">
          <mxGeometry x="208.75" y="-273.75" width="240" height="30" as="geometry" />
        </mxCell>
        <mxCell id="8jIOJXJKgkQRDivw16Ej-47" value="&lt;font style=&quot;font-size: 27px;&quot;&gt;Comercial&lt;/font&gt;" style="text;html=1;resizable=0;autosize=1;align=center;verticalAlign=middle;points=[];fillColor=none;strokeColor=none;rounded=0;strokeWidth=5;" parent="1" vertex="1">
          <mxGeometry x="262.5" y="730" width="140" height="30" as="geometry" />
        </mxCell>
        <mxCell id="8jIOJXJKgkQRDivw16Ej-48" value="&lt;font style=&quot;font-size: 27px;&quot;&gt;Copa / Cozinha&lt;/font&gt;" style="text;html=1;resizable=0;autosize=1;align=center;verticalAlign=middle;points=[];fillColor=none;strokeColor=none;rounded=0;strokeWidth=5;" parent="1" vertex="1">
          <mxGeometry x="200" y="320" width="200" height="30" as="geometry" />
        </mxCell>
        <mxCell id="8jIOJXJKgkQRDivw16Ej-51" value="" style="verticalLabelPosition=bottom;html=1;verticalAlign=top;align=center;shape=mxgraph.floorplan.doorLeft;aspect=fixed;fontSize=27;strokeWidth=5;rotation=90;" parent="1" vertex="1">
          <mxGeometry x="309" y="71" width="80" height="85" as="geometry" />
        </mxCell>
        <mxCell id="8jIOJXJKgkQRDivw16Ej-52" value="" style="verticalLabelPosition=bottom;html=1;verticalAlign=top;align=center;shape=mxgraph.floorplan.wall;fillColor=#000000;direction=south;" parent="1" vertex="1">
          <mxGeometry x="384" y="60" width="10" height="12.57" as="geometry" />
        </mxCell>
        <mxCell id="8jIOJXJKgkQRDivw16Ej-53" value="&lt;font style=&quot;font-size: 27px;&quot;&gt;Faturamento&lt;/font&gt;" style="text;html=1;resizable=0;autosize=1;align=center;verticalAlign=middle;points=[];fillColor=none;strokeColor=none;rounded=0;strokeWidth=5;" parent="1" vertex="1">
          <mxGeometry x="200" y="-30" width="170" height="30" as="geometry" />
        </mxCell>
        <mxCell id="8jIOJXJKgkQRDivw16Ej-56" value="" style="verticalLabelPosition=bottom;html=1;verticalAlign=top;align=center;shape=mxgraph.floorplan.desk_corner_2;fontSize=27;strokeWidth=5;flipH=1;" parent="1" vertex="1">
          <mxGeometry x="290" y="-160" width="158.75" height="120" as="geometry" />
        </mxCell>
        <mxCell id="8jIOJXJKgkQRDivw16Ej-57" value="" style="strokeColor=#666666;html=1;verticalLabelPosition=bottom;labelBackgroundColor=#ffffff;verticalAlign=top;outlineConnect=0;shadow=0;dashed=0;shape=mxgraph.rackGeneral.container;fillColor2=#f4f4f4;container=1;collapsible=0;childLayout=rack;allowGaps=1;marginLeft=9;marginRight=9;marginTop=21;marginBottom=22;textColor=#666666;numDisp=off;rotation=90;" parent="1" vertex="1">
          <mxGeometry x="180" y="-30" width="50" height="110" as="geometry" />
        </mxCell>
        <mxCell id="8jIOJXJKgkQRDivw16Ej-58" value="" style="strokeColor=#666666;html=1;verticalLabelPosition=bottom;labelBackgroundColor=#ffffff;verticalAlign=top;outlineConnect=0;shadow=0;dashed=0;shape=mxgraph.rackGeneral.container;fillColor2=#f4f4f4;container=1;collapsible=0;childLayout=rack;allowGaps=1;marginLeft=9;marginRight=9;marginTop=21;marginBottom=22;textColor=#666666;numDisp=off;rotation=90;" parent="1" vertex="1">
          <mxGeometry x="310" y="-30" width="50" height="110" as="geometry" />
        </mxCell>
        <mxCell id="8jIOJXJKgkQRDivw16Ej-59" value="" style="verticalLabelPosition=bottom;html=1;verticalAlign=top;align=center;shape=mxgraph.floorplan.chair;fontSize=27;strokeWidth=5;" parent="1" vertex="1">
          <mxGeometry x="321.25" y="524" width="41" height="52" as="geometry" />
        </mxCell>
        <mxCell id="8jIOJXJKgkQRDivw16Ej-61" value="" style="verticalLabelPosition=bottom;html=1;verticalAlign=top;align=center;shape=mxgraph.floorplan.chair;fontSize=27;strokeWidth=5;" parent="1" vertex="1">
          <mxGeometry x="399" y="524" width="41" height="52" as="geometry" />
        </mxCell>
        <mxCell id="8jIOJXJKgkQRDivw16Ej-62" value="" style="verticalLabelPosition=bottom;html=1;verticalAlign=top;align=center;shape=mxgraph.floorplan.chair;fontSize=27;strokeWidth=5;" parent="1" vertex="1">
          <mxGeometry x="480" y="524" width="41" height="52" as="geometry" />
        </mxCell>
        <mxCell id="8jIOJXJKgkQRDivw16Ej-63" value="" style="verticalLabelPosition=bottom;html=1;verticalAlign=top;align=center;shape=mxgraph.floorplan.chair;fontSize=27;strokeWidth=5;flipV=1;" parent="1" vertex="1">
          <mxGeometry x="319" y="700" width="41" height="52" as="geometry" />
        </mxCell>
        <mxCell id="8jIOJXJKgkQRDivw16Ej-64" value="" style="verticalLabelPosition=bottom;html=1;verticalAlign=top;align=center;shape=mxgraph.floorplan.chair;fontSize=27;strokeWidth=5;flipV=1;" parent="1" vertex="1">
          <mxGeometry x="405" y="700" width="41" height="52" as="geometry" />
        </mxCell>
        <mxCell id="8jIOJXJKgkQRDivw16Ej-65" value="" style="verticalLabelPosition=bottom;html=1;verticalAlign=top;align=center;shape=mxgraph.floorplan.chair;fontSize=27;strokeWidth=5;flipV=1;" parent="1" vertex="1">
          <mxGeometry x="480" y="700" width="41" height="52" as="geometry" />
        </mxCell>
        <mxCell id="8jIOJXJKgkQRDivw16Ej-66" value="" style="verticalLabelPosition=bottom;html=1;verticalAlign=top;align=center;shape=mxgraph.floorplan.desk_corner_2;fontSize=27;strokeWidth=5;flipH=0;flipV=1;rotation=-90;" parent="1" vertex="1">
          <mxGeometry x="118.75" y="476.25" width="155" height="102.5" as="geometry" />
        </mxCell>
        <mxCell id="8jIOJXJKgkQRDivw16Ej-67" value="" style="verticalLabelPosition=bottom;html=1;verticalAlign=top;align=center;shape=mxgraph.floorplan.chair;fontSize=27;strokeWidth=5;rotation=-90;" parent="1" vertex="1">
          <mxGeometry x="143.75" y="490" width="41" height="52" as="geometry" />
        </mxCell>
        <mxCell id="8jIOJXJKgkQRDivw16Ej-68" value="" style="verticalLabelPosition=bottom;html=1;verticalAlign=top;align=center;shape=mxgraph.floorplan.chair;fontSize=27;strokeWidth=5;" parent="1" vertex="1">
          <mxGeometry x="167" y="-326" width="41" height="52" as="geometry" />
        </mxCell>
        <mxCell id="8jIOJXJKgkQRDivw16Ej-69" value="" style="verticalLabelPosition=bottom;html=1;verticalAlign=top;align=center;shape=mxgraph.floorplan.chair;fontSize=27;strokeWidth=5;" parent="1" vertex="1">
          <mxGeometry x="214" y="-326" width="41" height="52" as="geometry" />
        </mxCell>
        <mxCell id="8jIOJXJKgkQRDivw16Ej-70" value="" style="verticalLabelPosition=bottom;html=1;verticalAlign=top;align=center;shape=mxgraph.floorplan.chair;fontSize=27;strokeWidth=5;" parent="1" vertex="1">
          <mxGeometry x="264.5" y="-326" width="41" height="52" as="geometry" />
        </mxCell>
        <mxCell id="8jIOJXJKgkQRDivw16Ej-71" value="" style="verticalLabelPosition=bottom;html=1;verticalAlign=top;align=center;shape=mxgraph.floorplan.chair;fontSize=27;strokeWidth=5;flipV=1;" parent="1" vertex="1">
          <mxGeometry x="190" y="-92" width="41" height="52" as="geometry" />
        </mxCell>
        <mxCell id="8jIOJXJKgkQRDivw16Ej-72" value="" style="verticalLabelPosition=bottom;html=1;verticalAlign=top;align=center;shape=mxgraph.floorplan.chair;fontSize=27;strokeWidth=5;flipV=1;" parent="1" vertex="1">
          <mxGeometry x="343" y="-92" width="41" height="52" as="geometry" />
        </mxCell>
        <mxCell id="8jIOJXJKgkQRDivw16Ej-74" value="" style="sketch=0;aspect=fixed;pointerEvents=1;shadow=0;dashed=0;html=1;strokeColor=none;labelPosition=center;verticalLabelPosition=bottom;verticalAlign=top;align=center;fillColor=#00188D;shape=mxgraph.azure.computer;fontSize=27;" parent="1" vertex="1">
          <mxGeometry x="200" y="-150" width="33.33" height="30" as="geometry" />
        </mxCell>
        <mxCell id="8jIOJXJKgkQRDivw16Ej-75" value="" style="sketch=0;aspect=fixed;pointerEvents=1;shadow=0;dashed=0;html=1;strokeColor=none;labelPosition=center;verticalLabelPosition=bottom;verticalAlign=top;align=center;fillColor=#00188D;shape=mxgraph.azure.computer;fontSize=27;" parent="1" vertex="1">
          <mxGeometry x="352.71000000000004" y="-150" width="33.33" height="30" as="geometry" />
        </mxCell>
        <mxCell id="8jIOJXJKgkQRDivw16Ej-76" value="" style="sketch=0;aspect=fixed;pointerEvents=1;shadow=0;dashed=0;html=1;strokeColor=none;labelPosition=center;verticalLabelPosition=bottom;verticalAlign=top;align=center;fillColor=#00188D;shape=mxgraph.azure.computer;fontSize=27;" parent="1" vertex="1">
          <mxGeometry x="326.67" y="590" width="33.33" height="30" as="geometry" />
        </mxCell>
        <mxCell id="8jIOJXJKgkQRDivw16Ej-77" value="" style="sketch=0;aspect=fixed;pointerEvents=1;shadow=0;dashed=0;html=1;strokeColor=none;labelPosition=center;verticalLabelPosition=bottom;verticalAlign=top;align=center;fillColor=#00188D;shape=mxgraph.azure.computer;fontSize=27;" parent="1" vertex="1">
          <mxGeometry x="328.92" y="650" width="33.33" height="30" as="geometry" />
        </mxCell>
        <mxCell id="8jIOJXJKgkQRDivw16Ej-78" value="" style="sketch=0;aspect=fixed;pointerEvents=1;shadow=0;dashed=0;html=1;strokeColor=none;labelPosition=center;verticalLabelPosition=bottom;verticalAlign=top;align=center;fillColor=#00188D;shape=mxgraph.azure.computer;fontSize=27;" parent="1" vertex="1">
          <mxGeometry x="402.5" y="590" width="33.33" height="30" as="geometry" />
        </mxCell>
        <mxCell id="8jIOJXJKgkQRDivw16Ej-79" value="" style="sketch=0;aspect=fixed;pointerEvents=1;shadow=0;dashed=0;html=1;strokeColor=none;labelPosition=center;verticalLabelPosition=bottom;verticalAlign=top;align=center;fillColor=#00188D;shape=mxgraph.azure.computer;fontSize=27;" parent="1" vertex="1">
          <mxGeometry x="404.75" y="650" width="33.33" height="30" as="geometry" />
        </mxCell>
        <mxCell id="8jIOJXJKgkQRDivw16Ej-80" value="" style="sketch=0;aspect=fixed;pointerEvents=1;shadow=0;dashed=0;html=1;strokeColor=none;labelPosition=center;verticalLabelPosition=bottom;verticalAlign=top;align=center;fillColor=#00188D;shape=mxgraph.azure.computer;fontSize=27;" parent="1" vertex="1">
          <mxGeometry x="480" y="590" width="33.33" height="30" as="geometry" />
        </mxCell>
        <mxCell id="8jIOJXJKgkQRDivw16Ej-81" value="" style="sketch=0;aspect=fixed;pointerEvents=1;shadow=0;dashed=0;html=1;strokeColor=none;labelPosition=center;verticalLabelPosition=bottom;verticalAlign=top;align=center;fillColor=#00188D;shape=mxgraph.azure.computer;fontSize=27;" parent="1" vertex="1">
          <mxGeometry x="482.25" y="650" width="33.33" height="30" as="geometry" />
        </mxCell>
        <mxCell id="8jIOJXJKgkQRDivw16Ej-82" value="" style="sketch=0;aspect=fixed;pointerEvents=1;shadow=0;dashed=0;html=1;strokeColor=none;labelPosition=center;verticalLabelPosition=bottom;verticalAlign=top;align=center;fillColor=#00188D;shape=mxgraph.azure.computer;fontSize=27;" parent="1" vertex="1">
          <mxGeometry x="208" y="494" width="33.33" height="30" as="geometry" />
        </mxCell>
        <mxCell id="8jIOJXJKgkQRDivw16Ej-83" value="&lt;font style=&quot;font-size: 27px;&quot;&gt;Pátio de triagem&lt;/font&gt;" style="text;html=1;resizable=0;autosize=1;align=center;verticalAlign=middle;points=[];fillColor=none;strokeColor=none;rounded=0;strokeWidth=5;" parent="1" vertex="1">
          <mxGeometry x="264.38" y="-420" width="210" height="30" as="geometry" />
        </mxCell>
        <mxCell id="8jIOJXJKgkQRDivw16Ej-84" value="&lt;font style=&quot;font-size: 27px;&quot;&gt;Pátio do posto&lt;/font&gt;" style="text;html=1;resizable=0;autosize=1;align=center;verticalAlign=middle;points=[];fillColor=none;strokeColor=none;rounded=0;strokeWidth=5;" parent="1" vertex="1">
          <mxGeometry x="270" y="820" width="190" height="30" as="geometry" />
        </mxCell>
      </root>
    </mxGraphModel>
  </diagram>
</mxfile>
